<svg width="18" height="17" viewBox="0 0 18 17" fill="none" xmlns="http://www.w3.org/2000/svg">
<path d="M13.7395 5.51226C13.5323 5.51226 13.3298 5.45082 13.1575 5.3357C12.9852 5.22059 12.8509 5.05697 12.7716 4.86554C12.6923 4.67411 12.6716 4.46346 12.712 4.26024C12.7524 4.05702 12.8522 3.87035 12.9987 3.72384C13.1453 3.57732 13.3319 3.47755 13.5351 3.43712C13.7384 3.3967 13.949 3.41745 14.1404 3.49674C14.3319 3.57603 14.4955 3.71031 14.6106 3.88259C14.7257 4.05488 14.7872 4.25742 14.7872 4.46463C14.7875 4.60229 14.7606 4.73865 14.708 4.86589C14.6555 4.99313 14.5783 5.10874 14.481 5.20608C14.3836 5.30342 14.268 5.38057 14.1408 5.43312C14.0136 5.48566 13.8772 5.51256 13.7395 5.51226Z" fill="#FDF7F4"/>
<path d="M9.19982 6.2102C9.75238 6.2102 10.2925 6.37405 10.752 6.68104C11.2114 6.98803 11.5695 7.42436 11.781 7.93487C11.9924 8.44537 12.0477 9.00711 11.9399 9.54906C11.8321 10.091 11.5661 10.5888 11.1753 10.9795C10.7846 11.3703 10.2868 11.6363 9.74486 11.7441C9.20291 11.8519 8.64117 11.7966 8.13067 11.5852C7.62017 11.3737 7.18383 11.0156 6.87684 10.5562C6.56985 10.0967 6.406 9.55658 6.406 9.00401C6.40679 8.26329 6.70139 7.55313 7.22516 7.02936C7.74894 6.50559 8.45909 6.21099 9.19982 6.2102ZM9.19982 4.81348C8.37101 4.81348 7.56081 5.05925 6.87168 5.51971C6.18255 5.98017 5.64544 6.63464 5.32826 7.40036C5.01109 8.16609 4.92811 9.00866 5.0898 9.82155C5.25149 10.6344 5.6506 11.3811 6.23666 11.9672C6.82272 12.5532 7.5694 12.9523 8.38228 13.114C9.19517 13.2757 10.0377 13.1927 10.8035 12.8756C11.5692 12.5584 12.2237 12.0213 12.6841 11.3322C13.1446 10.643 13.3904 9.83282 13.3904 9.00401C13.3904 7.89261 12.9489 6.82674 12.163 6.04086C11.3771 5.25498 10.3112 4.81348 9.19982 4.81348Z" fill="#FDF7F4"/>
<path d="M12.3795 1.98308C13.2806 1.98577 14.144 2.34491 14.7811 2.98207C15.4183 3.61922 15.7774 4.48262 15.7801 5.3837V12.1842C15.7774 13.0853 15.4183 13.9487 14.7811 14.5858C14.144 15.223 13.2806 15.5821 12.3795 15.5848H5.57901C4.67793 15.5821 3.81454 15.223 3.17738 14.5858C2.54022 13.9487 2.18108 13.0853 2.17839 12.1842V5.3837C2.18108 4.48262 2.54022 3.61922 3.17738 2.98207C3.81454 2.34491 4.67793 1.98577 5.57901 1.98308H12.3795ZM12.3795 0.623047H5.57901C2.9606 0.623047 0.818359 2.76528 0.818359 5.3837V12.1842C0.818359 14.8026 2.9606 16.9449 5.57901 16.9449H12.3795C14.9979 16.9449 17.1402 14.8026 17.1402 12.1842V5.3837C17.1402 2.76528 14.9979 0.623047 12.3795 0.623047Z" fill="#FDF7F4"/>
</svg>
