<svg width="11" height="12" viewBox="0 0 11 12" fill="none" xmlns="http://www.w3.org/2000/svg">
<path d="M8.08703 2.89162C9.87943 4.4038 10.1075 7.09391 8.59536 8.88631C7.08319 10.6787 4.39307 10.9068 2.60068 9.39464C2.46249 9.27806 2.33115 9.15334 2.21417 9.01987C3.73113 8.79689 5.14518 8.02792 6.15673 6.82893C7.16828 5.62993 7.68816 4.10659 7.65252 2.57375C7.80379 2.66658 7.94884 2.77504 8.08703 2.89162ZM8.77283 2.07874C8.03311 1.45467 7.16665 1.07154 6.27772 0.91295C6.89976 2.64135 6.61257 4.63931 5.34385 6.14313C4.07513 7.64696 2.15406 8.26646 0.345598 7.94434C0.6516 8.79387 1.17516 9.58345 1.91488 10.2075C4.15842 12.1003 7.51545 11.8156 9.40824 9.5721C11.301 7.32856 11.0164 3.97154 8.77283 2.07874Z" fill="white"/>
</svg>
