<svg width="338" height="147" viewBox="0 0 338 147" fill="none" xmlns="http://www.w3.org/2000/svg">
<path d="M108.32 115.4H91.1203V145H61.7203V115.4H0.720313V94.4L63.3203 2.19999H91.1203V92H108.32V115.4ZM61.7203 67.8C61.7203 64.7333 61.787 61 61.9203 56.6C62.0536 52.2 62.187 48.1333 62.3203 44.4C62.587 40.5333 62.787 38 62.9203 36.8H62.1203C60.9203 39.4667 59.6536 42.0667 58.3203 44.6C56.987 47.1333 55.387 49.7333 53.5203 52.4L27.3203 92H61.7203V67.8ZM218.773 73.6C218.773 88.9333 217.107 102.067 213.773 113C210.573 123.933 205.307 132.333 197.973 138.2C190.773 144.067 181.04 147 168.773 147C151.573 147 138.973 140.533 130.973 127.6C122.973 114.533 118.973 96.5333 118.973 73.6C118.973 58.1333 120.573 44.9333 123.773 34C126.973 23.0667 132.24 14.6667 139.573 8.79999C146.907 2.93333 156.64 -4.76837e-06 168.773 -4.76837e-06C185.84 -4.76837e-06 198.44 6.46666 206.573 19.4C214.707 32.3333 218.773 50.4 218.773 73.6ZM148.973 73.6C148.973 89.8667 150.373 102.133 153.173 110.4C155.973 118.533 161.173 122.6 168.773 122.6C176.24 122.6 181.44 118.533 184.373 110.4C187.307 102.267 188.773 90 188.773 73.6C188.773 57.3333 187.307 45.0667 184.373 36.8C181.44 28.5333 176.24 24.4 168.773 24.4C161.173 24.4 155.973 28.5333 153.173 36.8C150.373 45.0667 148.973 57.3333 148.973 73.6ZM337.227 115.4H320.027V145H290.627V115.4H229.627V94.4L292.227 2.19999H320.027V92H337.227V115.4ZM290.627 67.8C290.627 64.7333 290.693 61 290.827 56.6C290.96 52.2 291.093 48.1333 291.227 44.4C291.493 40.5333 291.693 38 291.827 36.8H291.027C289.827 39.4667 288.56 42.0667 287.227 44.6C285.893 47.1333 284.293 49.7333 282.427 52.4L256.227 92H290.627V67.8Z" fill="#00AAA1"/>
</svg>
